<svg version="1.1" id="Layer_1" xmlns="http://www.w3.org/2000/svg" xmlns:xlink="http://www.w3.org/1999/xlink" x="0px" y="0px" viewBox="0 0 500 500" xml:space="preserve" data-imageid="404-page-not-found-73" imageName="404 Page Not Found" class="illustrations_image">
<style type="text/css">
	.st0_404-page-not-found-73{fill:#FFFFFF;}
	.st1_404-page-not-found-73{fill:#231F20;}
	.st2_404-page-not-found-73{fill:#68E1FD;}
	.st3_404-page-not-found-73{fill:#D1D3D4;}
</style>
<g id="Laptop_404-page-not-found-73">
	<path class="st0_404-page-not-found-73" d="M120.5,168.1h269.1c11.1,0,20.1,9,20.1,20.1v164.3l0,0H100.4l0,0V188.3C100.4,177.2,109.4,168.1,120.5,168.1z"/>
	<path class="st1_404-page-not-found-73" d="M409.7,353.2H100.4c-0.4,0-0.6-0.3-0.6-0.6l0,0V188.3c0-11.5,9.3-20.8,20.8-20.8h269.1&#10;&#9;&#9;c11.5,0,20.8,9.3,20.8,20.8v164.3C410.4,353,410.1,353.2,409.7,353.2L409.7,353.2z M101,352h308.1V188.3c0-10.8-8.7-19.5-19.5-19.5&#10;&#9;&#9;H120.5c-10.8,0-19.5,8.7-19.5,19.5V352z"/>
	<path class="st0_404-page-not-found-73" d="M68.2,352.6h373.7l0,0l0,0c0,12.3-10,22.4-22.3,22.4c0,0,0,0,0,0h-329C78.2,375,68.2,365,68.2,352.6&#10;&#9;&#9;C68.2,352.6,68.2,352.6,68.2,352.6L68.2,352.6L68.2,352.6z"/>
	<path class="st1_404-page-not-found-73" d="M419.5,375.6h-329c-12.7,0-23-10.3-23-23l0,0c0-0.4,0.3-0.6,0.6-0.6c0,0,0,0,0,0h373.7c0.4,0,0.6,0.3,0.6,0.6&#10;&#9;&#9;v0C442.6,365.3,432.3,375.6,419.5,375.6L419.5,375.6z M68.8,353.2c0.4,11.7,10,21.1,21.7,21.1h329c11.7,0,21.3-9.3,21.7-21.1H68.8z&#10;&#9;&#9;"/>
	<rect x="224.8" y="352.6" class="st1_404-page-not-found-73" width="60.6" height="5.6"/>
</g>
<g id="Screen_404-page-not-found-73">
	<rect x="119.7" y="184.7" class="st2_404-page-not-found-73 targetColor" width="270.7" height="167.9" style="fill: rgb(110, 86, 207);"/>
	<circle class="st1_404-page-not-found-73" cx="132.4" cy="196.9" r="4.5"/>
	<circle class="st0_404-page-not-found-73" cx="147.7" cy="196.9" r="4.5"/>
	<circle class="st0_404-page-not-found-73" cx="163" cy="196.9" r="4.5"/>
	<path class="st0_404-page-not-found-73" d="M390.2,208.7H119.9c-0.4,0-0.7-0.3-0.7-0.7c0-0.4,0.3-0.7,0.7-0.7h270.3c0.4,0,0.7,0.3,0.7,0.7&#10;&#9;&#9;C390.9,208.4,390.6,208.7,390.2,208.7z"/>
</g>
<g id="Emoji_404-page-not-found-73">
	<path class="st0_404-page-not-found-73" d="M206.2,266c-0.6,0-1.2-0.2-1.6-0.7c-0.9-0.9-0.9-2.4,0-3.3l17.6-17.6c0.9-0.9,2.4-0.8,3.3,0.1&#10;&#9;&#9;c0.8,0.9,0.8,2.3,0,3.2l-17.6,17.6C207.4,265.8,206.8,266.1,206.2,266z"/>
	<path class="st0_404-page-not-found-73" d="M223.8,266c-0.6,0-1.2-0.2-1.6-0.7l-17.6-17.6c-0.9-0.9-0.8-2.4,0.1-3.3c0.9-0.8,2.3-0.8,3.2,0l17.6,17.6&#10;&#9;&#9;c0.9,0.9,0.9,2.4,0,3.3C225,265.8,224.4,266.1,223.8,266z"/>
	<path class="st0_404-page-not-found-73" d="M286.3,266c-0.6,0-1.2-0.2-1.6-0.7c-0.9-0.9-0.9-2.4,0-3.3l17.6-17.6c0.9-0.9,2.4-0.8,3.3,0.1&#10;&#9;&#9;c0.8,0.9,0.8,2.3,0,3.2L288,265.4C287.6,265.8,286.9,266.1,286.3,266z"/>
	<path class="st0_404-page-not-found-73" d="M303.9,266c-0.6,0-1.2-0.2-1.6-0.7l-17.6-17.6c-0.9-0.9-0.9-2.4,0-3.3c0.9-0.9,2.4-0.9,3.3,0l17.5,17.6&#10;&#9;&#9;c0.9,0.9,0.9,2.4,0,3.3C305.1,265.8,304.5,266,303.9,266L303.9,266z"/>
	<path class="st0_404-page-not-found-73" d="M175.2,305.6c-1.6,0-2.9-1.3-2.9-2.8c0-1.2,0.7-2.2,1.8-2.6c51.7-22,110.1-22,161.9,0c1.4,0.7,2,2.4,1.4,3.8&#10;&#9;&#9;c-0.6,1.4-2.2,2-3.6,1.5c-50.3-21.4-107.1-21.4-157.4,0C176,305.5,175.6,305.6,175.2,305.6z"/>
	<path class="st3_404-page-not-found-73" d="M104.7,168.8c-0.2,0-0.3-0.1-0.4-0.1c-0.3-0.2-0.4-0.7-0.2-1c0,0,0,0,0,0c2.5-3.4,5.6-8.4,3.3-12.4&#10;&#9;&#9;c-0.1-0.1-0.2-0.2-0.2-0.4c-2.6,3.1-5.6,5.7-9,7.8c-1.7,1.1-4.2,2.1-6.2,1.7c-0.9-0.2-1.8-0.8-2.3-1.6c-0.6-1.2-0.8-2.6-0.4-3.8&#10;&#9;&#9;c0.1-0.5,0.3-0.9,0.4-1.3c-2.9,2.9-6.3,5.5-9.9,7.5c-0.8,0.5-1.7,0.8-2.6,0.7c-1.6-0.3-2.7-1.6-2.9-3.2c-0.1-1.4,0.2-2.7,0.8-3.9&#10;&#9;&#9;c4.7-10.7,15.8-18.4,27.4-19.3c1.1-2.6,1.2-5.5,0.5-8.2c-0.8-2.7-3-4.8-5.7-5.5c-2.4-0.5-5.1,0.5-7.3,1.5&#10;&#9;&#9;c-12.1,5.5-21.9,14.9-28,26.7c-0.5,0.7-0.7,1.6-0.7,2.5c0.1,0.4,0.3,0.8,0.6,1c0.2,0.1,0.4,0.2,0.6,0.2c0.4-0.1,0.7,0.2,0.8,0.6&#10;&#9;&#9;c0,0,0,0,0,0c0.1,0.4-0.2,0.7-0.6,0.8c0,0,0,0,0,0c-0.6,0.1-1.2,0-1.7-0.4c-0.6-0.5-1.1-1.2-1.1-2c0-1.2,0.3-2.3,0.9-3.3&#10;&#9;&#9;c6.2-12.1,16.3-21.7,28.7-27.3c2.4-1.1,5.3-2.2,8.2-1.6c3.2,0.8,5.8,3.3,6.7,6.5c0.8,2.8,0.7,5.8-0.3,8.6c0.9,0,1.8,0,2.8,0&#10;&#9;&#9;c0.9,0,1.8,0.2,2.6,0.7c1.8,1.1,1.9,3.5,1.8,4.9c-0.3,3.2-1.4,6.2-3.3,8.7c0.2,0.3,0.4,0.5,0.6,0.8c2.7,4.6-0.6,10.1-3.4,13.9&#10;&#9;&#9;C105.1,168.7,104.9,168.8,104.7,168.8z M102,141.1c-10.9,1.2-21.1,8.4-25.5,18.4c-0.5,1-0.8,2.1-0.7,3.2c0.1,0.9,0.7,1.7,1.6,1.9&#10;&#9;&#9;c0.6,0,1.3-0.2,1.8-0.6c5.8-3.1,10.4-8,14.8-12.6C96.9,148.4,100.1,145.1,102,141.1z M100.8,152.2c-0.7,0-1.4,0.1-2.1,0.2&#10;&#9;&#9;c-3.9,0.8-7.2,3.6-8,7c-0.3,0.9-0.2,1.9,0.2,2.8c0.3,0.5,0.8,0.8,1.4,0.9c1.6,0.4,3.8-0.6,5.1-1.5c3.3-2.1,6.3-4.7,8.8-7.7&#10;&#9;&#9;C104.7,152.7,102.8,152.1,100.8,152.2L100.8,152.2z M100.8,150.8c2.2-0.1,4.4,0.6,6.2,2c1.6-2.3,2.6-5,2.9-7.8&#10;&#9;&#9;c0.1-0.8,0.1-2.8-1.2-3.6c-0.6-0.3-1.3-0.5-1.9-0.4c-1.1-0.1-2.2-0.1-3.2,0c-1.9,4.4-5.2,8-8.3,11.2c1-0.5,2-0.9,3.1-1.1&#10;&#9;&#9;C99.2,150.9,100,150.8,100.8,150.8L100.8,150.8z"/>
</g>
<g id="Page_not_Found_Text_404-page-not-found-73">
	<path class="st0_404-page-not-found-73" d="M49.4,256.1h87.8c5.5,0,9.9,4.5,9.9,9.9v47.1c0,5.5-4.5,9.9-9.9,9.9H49.4c-5.5,0-9.9-4.5-9.9-9.9v-47.1&#10;&#9;&#9;C39.4,260.6,43.9,256.1,49.4,256.1z"/>
	<path class="st3_404-page-not-found-73" d="M137.1,323.8H49.4c-5.9,0-10.6-4.8-10.6-10.6v-47.1c0-5.9,4.8-10.6,10.6-10.6h87.8c5.9,0,10.6,4.8,10.6,10.6&#10;&#9;&#9;v47.1C147.8,319.1,143,323.8,137.1,323.8z M49.4,256.8c-5.1,0-9.2,4.1-9.2,9.2v47.1c0,5.1,4.1,9.2,9.2,9.2h87.8&#10;&#9;&#9;c5.1,0,9.2-4.1,9.2-9.2v-47.1c0-5.1-4.1-9.2-9.2-9.2L49.4,256.8z"/>
	<path class="st1_404-page-not-found-73" d="M74.1,273.5h4.5c0.7,0,1.4,0.1,2,0.3c0.5,0.2,0.9,0.4,1.3,0.8c0.3,0.3,0.5,0.7,0.6,1.1&#10;&#9;&#9;c0.1,0.4,0.2,0.8,0.2,1.1c0,0.4,0,0.8-0.2,1.2c-0.1,0.4-0.3,0.8-0.6,1.1c-0.4,0.3-0.8,0.6-1.3,0.8c-0.6,0.2-1.3,0.3-2,0.3h-2.8v5.2&#10;&#9;&#9;h-1.7V273.5z M75.8,278.8h2.3c0.3,0,0.7,0,1-0.1c0.3,0,0.6-0.1,0.9-0.3c0.3-0.1,0.5-0.3,0.6-0.6c0.2-0.3,0.2-0.7,0.2-1&#10;&#9;&#9;c0-0.3-0.1-0.7-0.2-1c-0.2-0.2-0.4-0.4-0.6-0.6c-0.3-0.1-0.6-0.2-0.9-0.3c-0.3,0-0.7-0.1-1-0.1h-2.3L75.8,278.8z"/>
	<path class="st1_404-page-not-found-73" d="M84.4,278.4c0.5-0.4,1-0.7,1.6-0.9c0.6-0.2,1.2-0.3,1.8-0.3c0.5,0,1.1,0.1,1.6,0.2c0.4,0.1,0.8,0.3,1.1,0.6&#10;&#9;&#9;c0.3,0.2,0.5,0.5,0.7,0.9c0.1,0.3,0.2,0.7,0.2,1v4.1c0,0.3,0,0.5,0,0.8s0,0.5,0.1,0.7H90c0-0.4,0-0.8,0-1.2l0,0&#10;&#9;&#9;c-0.3,0.5-0.8,0.9-1.3,1.1c-0.5,0.2-1.1,0.3-1.7,0.3c-0.4,0-0.8,0-1.1-0.1c-0.4-0.1-0.7-0.2-1-0.5c-0.3-0.2-0.5-0.5-0.6-0.8&#10;&#9;&#9;c-0.2-0.3-0.2-0.7-0.2-1c0-0.5,0.1-0.9,0.4-1.3c0.3-0.4,0.6-0.7,1-0.9c0.5-0.2,1-0.4,1.5-0.5c0.6-0.1,1.2-0.1,1.8-0.1h1.2v-0.3&#10;&#9;&#9;c0-0.2,0-0.4-0.1-0.6c-0.1-0.2-0.2-0.4-0.4-0.5c-0.2-0.2-0.4-0.3-0.6-0.4c-0.3-0.1-0.6-0.2-0.9-0.1c-0.3,0-0.6,0-0.8,0.1&#10;&#9;&#9;c-0.2,0.1-0.4,0.1-0.6,0.2c-0.2,0.1-0.4,0.2-0.5,0.3l-0.4,0.3L84.4,278.4z M89,281.6c-0.4,0-0.8,0-1.2,0.1c-0.4,0-0.7,0.1-1.1,0.2&#10;&#9;&#9;c-0.3,0.1-0.6,0.3-0.8,0.5c-0.2,0.2-0.3,0.5-0.3,0.8c0,0.4,0.2,0.8,0.5,1c0.4,0.2,0.9,0.3,1.3,0.3c0.4,0,0.8-0.1,1.1-0.2&#10;&#9;&#9;c0.3-0.1,0.5-0.3,0.8-0.5c0.2-0.2,0.3-0.5,0.4-0.8c0.1-0.3,0.1-0.5,0.1-0.8v-0.5L89,281.6z"/>
	<path class="st1_404-page-not-found-73" d="M102.4,285.3c0,0.6-0.1,1.1-0.4,1.7c-0.2,0.5-0.6,0.9-1,1.3c-0.4,0.4-0.9,0.7-1.5,0.9&#10;&#9;&#9;c-0.6,0.2-1.3,0.3-1.9,0.3c-0.8,0-1.5-0.1-2.2-0.3c-0.7-0.2-1.3-0.6-1.9-1.1l1.1-1.3c0.4,0.4,0.9,0.8,1.4,1&#10;&#9;&#9;c0.5,0.2,1.1,0.3,1.7,0.3c0.5,0,1-0.1,1.5-0.2c0.4-0.1,0.7-0.4,0.9-0.6c0.2-0.3,0.4-0.6,0.5-0.9c0.1-0.3,0.1-0.7,0.1-1v-1.2l0,0&#10;&#9;&#9;c-0.3,0.5-0.8,0.8-1.3,1.1c-0.5,0.2-1.1,0.3-1.7,0.3c-0.6,0-1.2-0.1-1.8-0.3c-0.5-0.2-1-0.5-1.4-0.9c-0.4-0.4-0.7-0.8-0.9-1.3&#10;&#9;&#9;c-0.2-0.5-0.3-1.1-0.3-1.6c0-0.6,0.1-1.1,0.3-1.6c0.2-0.5,0.5-1,0.9-1.3c0.4-0.4,0.9-0.7,1.4-0.9c0.6-0.2,1.2-0.3,1.8-0.3&#10;&#9;&#9;c0.6,0,1.2,0.1,1.7,0.4c0.5,0.2,1,0.6,1.3,1l0,0v-1.1h1.6L102.4,285.3z M97.9,278.6c-0.4,0-0.8,0.1-1.2,0.2&#10;&#9;&#9;c-0.3,0.1-0.6,0.3-0.9,0.6c-0.2,0.2-0.4,0.5-0.6,0.9c-0.1,0.4-0.2,0.7-0.2,1.1c0,0.7,0.2,1.4,0.8,1.9c1.2,1,2.9,1,4.1,0&#10;&#9;&#9;c0.5-0.5,0.8-1.2,0.8-1.9c0-0.4-0.1-0.8-0.2-1.1c-0.1-0.3-0.3-0.6-0.6-0.9c-0.3-0.2-0.6-0.4-0.9-0.6&#10;&#9;&#9;C98.7,278.7,98.3,278.6,97.9,278.6z"/>
	<path class="st1_404-page-not-found-73" d="M106.1,282c0,0.3,0.1,0.7,0.2,1c0.2,0.3,0.4,0.5,0.6,0.7c0.3,0.2,0.6,0.4,0.9,0.5c0.4,0.1,0.7,0.2,1.1,0.2&#10;&#9;&#9;c0.5,0,0.9-0.1,1.3-0.3c0.4-0.2,0.7-0.5,1-0.9l1.2,0.9c-0.9,1.1-2.3,1.7-3.8,1.6c-0.6,0-1.2-0.1-1.8-0.3c-1-0.4-1.9-1.2-2.3-2.2&#10;&#9;&#9;c-0.2-0.5-0.3-1.1-0.3-1.6c0-0.6,0.1-1.1,0.3-1.7c0.2-0.5,0.5-1,0.9-1.3c0.4-0.4,0.9-0.7,1.4-0.9c0.6-0.2,1.2-0.3,1.8-0.3&#10;&#9;&#9;c0.7,0,1.3,0.1,1.9,0.4c0.5,0.2,0.9,0.6,1.3,1c0.3,0.4,0.6,0.9,0.7,1.4c0.1,0.5,0.2,1,0.2,1.5v0.5H106.1z M111.2,280.8&#10;&#9;&#9;c0-0.3-0.1-0.6-0.2-0.9c-0.1-0.3-0.3-0.5-0.5-0.7c-0.2-0.2-0.5-0.4-0.8-0.5c-0.3-0.1-0.7-0.2-1.1-0.2c-0.4,0-0.8,0.1-1.1,0.2&#10;&#9;&#9;c-0.3,0.1-0.6,0.3-0.8,0.5c-0.2,0.2-0.4,0.5-0.5,0.8c-0.1,0.3-0.2,0.5-0.2,0.8L111.2,280.8z"/>
	<path class="st1_404-page-not-found-73" d="M50.1,293.7h2.3l7.1,9.8l0,0v-9.8h1.8v11.9H59l-7.1-9.8l0,0v9.8h-1.8V293.7z"/>
	<path class="st1_404-page-not-found-73" d="M63.7,301.6c0-0.5,0.1-1.1,0.3-1.6c0.2-0.5,0.6-1,1-1.3c0.4-0.4,0.9-0.7,1.4-0.9c1.2-0.4,2.4-0.4,3.6,0&#10;&#9;&#9;c0.5,0.2,1,0.5,1.4,0.9c0.4,0.4,0.8,0.8,1,1.3c0.2,0.5,0.4,1.1,0.3,1.6c0,0.6-0.1,1.1-0.3,1.6c-0.2,0.5-0.6,1-1,1.3&#10;&#9;&#9;c-0.4,0.4-0.9,0.7-1.4,0.9c-1.2,0.4-2.4,0.4-3.6,0c-0.5-0.2-1-0.5-1.4-0.9c-0.4-0.4-0.8-0.8-1-1.3&#10;&#9;&#9;C63.8,302.7,63.6,302.2,63.7,301.6z M65.4,301.6c0,0.4,0.1,0.8,0.2,1.1c0.1,0.3,0.3,0.6,0.6,0.9c0.3,0.2,0.6,0.4,0.9,0.6&#10;&#9;&#9;c0.8,0.3,1.6,0.3,2.4,0c0.3-0.1,0.6-0.3,0.9-0.6c0.2-0.2,0.4-0.5,0.6-0.9c0.1-0.4,0.2-0.7,0.2-1.1c0-0.4-0.1-0.8-0.2-1.1&#10;&#9;&#9;c-0.1-0.3-0.3-0.6-0.6-0.9c-0.3-0.2-0.6-0.4-0.9-0.6c-0.8-0.3-1.6-0.3-2.4,0c-0.3,0.1-0.6,0.3-0.9,0.6c-0.2,0.2-0.4,0.5-0.6,0.9&#10;&#9;&#9;C65.4,300.8,65.4,301.2,65.4,301.6z"/>
	<path class="st1_404-page-not-found-73" d="M79.4,298.9h-2.3v3.6c0,0.2,0,0.4,0,0.7c0,0.2,0,0.4,0.1,0.6c0.1,0.2,0.2,0.3,0.4,0.4c0.2,0.1,0.5,0.2,0.7,0.2&#10;&#9;&#9;c0.2,0,0.4,0,0.6,0c0.2,0,0.4-0.1,0.6-0.2v1.4c-0.2,0.1-0.5,0.2-0.8,0.2c-0.2,0-0.5,0.1-0.7,0.1c-0.5,0-1-0.1-1.5-0.2&#10;&#9;&#9;c-0.3-0.1-0.6-0.4-0.8-0.6c-0.2-0.3-0.3-0.6-0.3-0.9c0-0.3,0-0.6,0-1v-4.1h-1.9v-1.3h1.9v-2.2h1.6v2.2h2.3V298.9z"/>
	<path class="st1_404-page-not-found-73" d="M87,293.7h8v1.5h-6.3v3.7h5.9v1.5h-5.9v5.1H87V293.7z"/>
	<path class="st1_404-page-not-found-73" d="M96.5,301.6c0-0.6,0.1-1.1,0.3-1.6c0.2-0.5,0.6-1,1-1.3c0.4-0.4,0.9-0.7,1.4-0.9c1.2-0.4,2.4-0.4,3.6,0&#10;&#9;&#9;c0.5,0.2,1,0.5,1.4,0.9c0.4,0.4,0.8,0.8,1,1.3c0.2,0.5,0.4,1.1,0.3,1.6c0,0.6-0.1,1.1-0.3,1.6c-0.2,0.5-0.6,1-1,1.3&#10;&#9;&#9;c-0.4,0.4-0.9,0.7-1.4,0.9c-1.2,0.4-2.4,0.4-3.6,0c-0.5-0.2-1-0.5-1.4-0.9c-0.4-0.4-0.8-0.8-1-1.3&#10;&#9;&#9;C96.6,302.7,96.5,302.1,96.5,301.6z M98.3,301.6c0,0.4,0.1,0.8,0.2,1.1c0.1,0.3,0.3,0.6,0.6,0.9c0.3,0.2,0.6,0.4,0.9,0.6&#10;&#9;&#9;c0.8,0.3,1.6,0.3,2.3,0c0.3-0.1,0.6-0.3,0.9-0.6c0.2-0.2,0.4-0.5,0.6-0.9c0.1-0.4,0.2-0.7,0.2-1.1c0-0.4-0.1-0.8-0.2-1.1&#10;&#9;&#9;c-0.1-0.3-0.3-0.6-0.6-0.9c-0.3-0.2-0.6-0.4-0.9-0.6c-0.8-0.3-1.6-0.3-2.3,0c-0.3,0.1-0.6,0.3-0.9,0.6c-0.2,0.2-0.4,0.5-0.6,0.9&#10;&#9;&#9;C98.3,300.8,98.3,301.2,98.3,301.6z"/>
	<path class="st1_404-page-not-found-73" d="M115.3,305.6h-1.6v-1.2l0,0c-0.2,0.4-0.6,0.8-1.1,1c-0.5,0.3-1.1,0.4-1.8,0.4c-0.4,0-0.8-0.1-1.2-0.2&#10;&#9;&#9;c-0.4-0.1-0.7-0.3-1-0.5c-0.3-0.3-0.5-0.6-0.7-1c-0.2-0.4-0.3-0.9-0.3-1.4v-5h1.6v4.7c0,0.3,0.1,0.6,0.2,1c0.1,0.2,0.2,0.5,0.4,0.6&#10;&#9;&#9;c0.2,0.2,0.4,0.3,0.6,0.4c0.2,0.1,0.5,0.1,0.7,0.1c0.3,0,0.6,0,0.9-0.1c0.3-0.1,0.5-0.3,0.8-0.5c0.2-0.2,0.4-0.5,0.5-0.8&#10;&#9;&#9;c0.1-0.4,0.2-0.8,0.2-1.2v-4.1h1.6L115.3,305.6z"/>
	<path class="st1_404-page-not-found-73" d="M117.8,297.6h1.6v1.2l0,0c0.2-0.4,0.6-0.8,1.1-1c0.5-0.3,1.2-0.4,1.8-0.4c0.4,0,0.8,0.1,1.2,0.2&#10;&#9;&#9;c0.4,0.1,0.7,0.3,1,0.5c0.3,0.3,0.5,0.6,0.7,1c0.2,0.4,0.3,0.9,0.2,1.4v5.1h-1.6v-4.7c0-0.3,0-0.6-0.2-1c-0.1-0.2-0.2-0.5-0.4-0.6&#10;&#9;&#9;c-0.2-0.2-0.4-0.3-0.6-0.4c-0.2-0.1-0.5-0.1-0.7-0.1c-0.3,0-0.7,0-1,0.1c-0.3,0.1-0.5,0.3-0.8,0.5c-0.2,0.2-0.4,0.5-0.5,0.8&#10;&#9;&#9;c-0.1,0.4-0.2,0.8-0.2,1.2v4.1h-1.6L117.8,297.6z"/>
	<path class="st1_404-page-not-found-73" d="M136.4,305.6h-1.6v-1.1l0,0c-0.3,0.4-0.8,0.8-1.3,1c-0.5,0.2-1.1,0.3-1.7,0.4c-0.6,0-1.2-0.1-1.8-0.3&#10;&#9;&#9;c-0.5-0.2-1-0.5-1.4-0.9c-0.4-0.4-0.7-0.8-0.9-1.3c-0.4-1.1-0.4-2.2,0-3.3c0.2-0.5,0.5-0.9,0.9-1.3c0.4-0.4,0.9-0.7,1.4-0.9&#10;&#9;&#9;c0.6-0.2,1.2-0.3,1.8-0.3c0.6,0,1.2,0.1,1.7,0.4c0.5,0.2,0.9,0.6,1.2,1l0,0v-5.9h1.6L136.4,305.6z M132,304.4&#10;&#9;&#9;c0.4,0,0.8-0.1,1.2-0.2c0.3-0.1,0.6-0.3,0.9-0.6c0.2-0.2,0.4-0.5,0.6-0.9c0.1-0.4,0.2-0.7,0.2-1.1c0-0.4-0.1-0.8-0.2-1.1&#10;&#9;&#9;c-0.1-0.3-0.3-0.6-0.6-0.9c-0.3-0.2-0.6-0.4-0.9-0.6c-0.8-0.3-1.6-0.3-2.4,0c-0.3,0.1-0.6,0.3-0.9,0.6c-0.2,0.2-0.4,0.5-0.6,0.9&#10;&#9;&#9;c-0.1,0.4-0.2,0.7-0.2,1.1c0,0.4,0.1,0.8,0.2,1.1c0.1,0.3,0.3,0.6,0.6,0.9c0.3,0.2,0.6,0.4,0.9,0.6&#10;&#9;&#9;C131.2,304.3,131.6,304.4,132,304.4z"/>
</g>
<g id="_404_text_404-page-not-found-73">
	<path class="st0_404-page-not-found-73" d="M366.5,220.9h86.1c4.4,0,8,3.6,8,8v30c0,4.4-3.6,8-8,8h-86.1c-4.4,0-8-3.6-8-8v-30&#10;&#9;&#9;C358.5,224.5,362.1,220.9,366.5,220.9z"/>
	<path class="st3_404-page-not-found-73" d="M452.6,267.6h-86.1c-4.8,0-8.7-3.9-8.7-8.7v-30c0-4.8,3.9-8.7,8.7-8.7h86.1c4.8,0,8.7,3.9,8.7,8.7v30&#10;&#9;&#9;C461.3,263.7,457.4,267.6,452.6,267.6z M366.5,221.6c-4,0-7.3,3.3-7.3,7.3v0v30c0,4,3.3,7.3,7.3,7.3l0,0h86.1c4,0,7.3-3.3,7.3-7.3&#10;&#9;&#9;l0,0v-30c0-4-3.3-7.3-7.3-7.3l0,0H366.5z"/>
	<path class="st1_404-page-not-found-73" d="M390,250.8h-12v-4.2l9.1-13.5h7.9v13.5h2.9v4.2H395v3.9h-5L390,250.8z M390,246.6v-10.3h0l-7,10.3L390,246.6z"/>
	<path class="st1_404-page-not-found-73" d="M399.3,243.9c0-7,4.2-11.2,10.3-11.2s10.2,4.3,10.2,11.2s-4.2,11.2-10.2,11.2S399.3,250.9,399.3,243.9z&#10;&#9;&#9; M414.9,243.9c0-4.7-2-7.1-5.2-7.1s-5.3,2.3-5.3,7.1s2,7.1,5.3,7.1S414.9,248.6,414.9,243.9z"/>
	<path class="st1_404-page-not-found-73" d="M433.2,250.8h-12.1v-4.2l9.1-13.5h7.9v13.5h2.9v4.2h-2.9v3.9h-5L433.2,250.8z M433.2,246.6v-10.3h-0.1l-7,10.3&#10;&#9;&#9;L433.2,246.6z"/>
</g>
<path id="line_404-page-not-found-73" class="st1_404-page-not-found-73" d="M435.5,353.3h-361c-0.4,0-0.7-0.3-0.7-0.7s0.3-0.7,0.7-0.7h361c0.4,0,0.7,0.3,0.7,0.7&#10;&#9;S436,353.3,435.5,353.3L435.5,353.3z"/>
</svg>