<svg width="800" height="800" viewBox="0 0 800 800" fill="none" xmlns="http://www.w3.org/2000/svg">
<path d="M10 110C10 54.7715 54.7715 10 110 10H690C745.228 10 790 54.7715 790 110V690C790 745.228 745.228 790 690 790H110C54.7715 790 10 745.228 10 690V110Z" fill="#121113"/>
<path d="M205.293 540.528C192.331 540.528 180.612 538.131 170.136 533.337C159.661 528.454 151.36 521.396 145.234 512.163C139.197 502.93 136.179 491.611 136.179 478.205C136.179 466.664 138.398 457.165 142.837 449.707C147.276 442.25 153.268 436.346 160.815 431.996C168.361 427.646 176.795 424.361 186.116 422.142C195.438 419.922 204.938 418.235 214.614 417.081C226.866 415.661 236.809 414.507 244.444 413.619C252.079 412.642 257.627 411.089 261.09 408.958C264.552 406.827 266.283 403.365 266.283 398.571V397.639C266.283 386.009 262.999 376.998 256.429 370.606C249.948 364.214 240.271 361.018 227.398 361.018C213.993 361.018 203.428 363.992 195.705 369.94C188.07 375.799 182.787 382.325 179.858 389.516L142.438 380.993C146.876 368.564 153.357 358.532 161.88 350.897C170.491 343.173 180.39 337.58 191.576 334.118C202.762 330.567 214.526 328.791 226.866 328.791C235.033 328.791 243.689 329.768 252.833 331.721C262.066 333.585 270.678 337.048 278.668 342.108C286.747 347.168 293.361 354.404 298.51 363.814C303.659 373.136 306.234 385.254 306.234 400.169V536H267.349V508.035H265.751C263.176 513.184 259.314 518.244 254.165 523.216C249.016 528.187 242.402 532.316 234.323 535.6C226.244 538.885 216.567 540.528 205.293 540.528ZM213.949 508.567C224.957 508.567 234.368 506.392 242.18 502.042C250.081 497.692 256.074 492.01 260.158 484.997C264.33 477.895 266.417 470.304 266.417 462.225V435.858C264.996 437.278 262.244 438.61 258.16 439.853C254.165 441.007 249.593 442.028 244.444 442.916C239.295 443.715 234.279 444.469 229.396 445.18C224.513 445.801 220.429 446.334 217.145 446.778C209.421 447.754 202.363 449.397 195.971 451.705C189.668 454.013 184.607 457.342 180.79 461.692C177.061 465.954 175.197 471.636 175.197 478.738C175.197 488.592 178.837 496.05 186.116 501.11C193.396 506.082 202.674 508.567 213.949 508.567ZM359.268 263.273H399.085V480.07C399.085 488.859 400.195 495.073 402.414 498.713C404.722 502.353 409.072 504.084 415.464 503.907C418.927 503.818 421.501 503.596 423.188 503.241C424.964 502.886 426.562 502.486 427.982 502.042L435.173 533.869C432.421 534.668 428.914 535.423 424.653 536.133C420.48 536.932 415.731 537.376 410.404 537.465C393.181 537.731 380.353 533.647 371.919 525.213C363.485 516.779 359.268 504.484 359.268 488.326V263.273ZM556.922 331.455V363.415H445.194V331.455H556.922ZM475.157 282.449H514.974V475.941C514.974 483.665 516.128 489.48 518.436 493.386C520.744 497.204 523.719 499.823 527.358 501.243C531.087 502.575 535.127 503.241 539.477 503.241C542.673 503.241 545.469 503.019 547.866 502.575C550.263 502.131 552.128 501.776 553.459 501.51L560.65 534.402C558.342 535.29 555.057 536.178 550.796 537.065C546.535 538.042 541.208 538.575 534.816 538.663C524.34 538.841 514.574 536.977 505.519 533.07C496.464 529.164 489.139 523.127 483.546 514.96C477.953 506.792 475.157 496.538 475.157 484.198V282.449Z" fill="#EEEEF0"/>
<path d="M627.201 538.53C619.921 538.53 613.662 535.956 608.424 530.806C603.186 525.569 600.567 519.265 600.567 511.897C600.567 504.617 603.186 498.402 608.424 493.253C613.662 488.015 619.921 485.396 627.201 485.396C634.481 485.396 640.74 488.015 645.978 493.253C651.215 498.402 653.834 504.617 653.834 511.897C653.834 516.779 652.592 521.263 650.106 525.347C647.709 529.342 644.513 532.538 640.518 534.935C636.523 537.332 632.084 538.53 627.201 538.53Z" fill="#6E56CF"/>
</svg>
