<svg width="1024" height="1024" viewBox="0 0 1024 1024" fill="none" xmlns="http://www.w3.org/2000/svg">
<g clip-path="url(#clip0_880_2)">
<rect width="1024" height="1024" rx="150" fill="#121113"/>
<path d="M239.829 708.339C221.682 708.339 205.276 704.983 190.61 698.271C175.944 691.435 164.323 681.554 155.747 668.628C147.295 655.702 143.069 639.855 143.069 621.087C143.069 604.93 146.176 591.631 152.391 581.19C158.605 570.75 166.995 562.485 177.56 556.395C188.124 550.304 199.932 545.706 212.982 542.598C226.033 539.491 239.332 537.13 252.879 535.514C270.031 533.525 283.952 531.909 294.641 530.667C305.329 529.299 313.098 527.124 317.945 524.141C322.792 521.158 325.216 516.311 325.216 509.599V508.294C325.216 492.012 320.617 479.397 311.42 470.448C302.346 461.499 288.799 457.025 270.777 457.025C252.009 457.025 237.219 461.189 226.405 469.516C215.716 477.719 208.321 486.854 204.22 496.922L151.832 484.99C158.046 467.589 167.119 453.545 179.051 442.856C191.107 432.043 204.965 424.212 220.626 419.365C236.286 414.393 252.755 411.908 270.031 411.908C281.466 411.908 293.584 413.275 306.386 416.009C319.312 418.619 331.368 423.467 342.554 430.551C353.865 437.636 363.124 447.765 370.333 460.94C377.542 473.99 381.146 490.956 381.146 511.837V702H326.707V662.849H324.47C320.866 670.058 315.459 677.142 308.25 684.102C301.041 691.062 291.782 696.842 280.471 701.441C269.161 706.039 255.614 708.339 239.829 708.339ZM251.947 663.594C267.359 663.594 280.534 660.549 291.471 654.459C302.533 648.369 310.922 640.414 316.64 630.596C322.481 620.652 325.402 610.026 325.402 598.715V561.801C323.414 563.79 319.561 565.654 313.843 567.394C308.25 569.01 301.849 570.439 294.641 571.682C287.432 572.801 280.409 573.857 273.573 574.852C266.737 575.722 261.02 576.467 256.421 577.089C245.608 578.456 235.727 580.755 226.778 583.987C217.954 587.218 210.869 591.879 205.525 597.969C200.305 603.935 197.694 611.89 197.694 621.833C197.694 635.629 202.79 646.07 212.982 653.154C223.174 660.114 236.162 663.594 251.947 663.594ZM455.394 320.182H511.138V623.697C511.138 636.002 512.691 644.702 515.799 649.798C519.03 654.894 525.12 657.318 534.069 657.069C538.917 656.945 542.521 656.634 544.882 656.137C547.368 655.64 549.605 655.081 551.594 654.459L561.662 699.017C557.809 700.136 552.899 701.192 546.933 702.186C541.092 703.305 534.442 703.926 526.985 704.051C502.872 704.424 484.913 698.706 473.105 686.899C461.298 675.091 455.394 657.877 455.394 635.256V320.182ZM732.109 415.636V460.381H575.691V415.636H732.109ZM617.639 347.028H673.383V617.918C673.383 628.731 674.998 636.872 678.23 642.341C681.461 647.685 685.625 651.352 690.721 653.341C695.941 655.205 701.596 656.137 707.686 656.137C712.161 656.137 716.076 655.826 719.432 655.205C722.788 654.583 725.398 654.086 727.262 653.713L737.33 699.763C734.098 701.006 729.499 702.249 723.533 703.491C717.568 704.859 710.11 705.604 701.161 705.729C686.495 705.977 672.823 703.367 660.146 697.898C647.468 692.43 637.214 683.978 629.384 672.543C621.554 661.109 617.639 646.753 617.639 629.477V347.028Z" fill="#EEEEF0"/>
<path d="M830.5 705.542C820.309 705.542 811.546 701.938 804.213 694.729C796.88 687.396 793.213 678.571 793.213 668.255C793.213 658.064 796.88 649.363 804.213 642.154C811.546 634.821 820.309 631.155 830.5 631.155C840.692 631.155 849.455 634.821 856.788 642.154C864.121 649.363 867.787 658.064 867.787 668.255C867.787 675.091 866.047 681.368 862.567 687.085C859.211 692.678 854.737 697.153 849.144 700.509C843.551 703.864 837.336 705.542 830.5 705.542Z" fill="#6E56CF"/>
</g>
<defs>
<clipPath id="clip0_880_2">
<rect width="1024" height="1024" fill="white"/>
</clipPath>
</defs>
</svg>
